<?xml version="1.0"?>
<svg xmlns="http://www.w3.org/2000/svg" viewBox="0 0 68.43654 31.707447">
	<defs>
		<style>
			.write{
				fill: transparent;
				stroke: black;
				stroke-width: .1px;
				stroke-dasharray: 40px;
				stroke-dashoffset: 40px;
			}
			.c1{
				animation: write 1s forwards 2s;
			}
			.c2{
				animation: write 1s forwards 2.1s;
			}
			.c3{
				animation: write 1s forwards 2.2s;
			}
			.c4{
				animation: write 1s forwards 2.3s;
			}
			.c5{
				animation: write 1s forwards 2.4s;
			}
			.c6{
				animation: write 1s forwards 2.5s;
			}
			.c7{
				animation: write 1s forwards 2.6s;
			}
			.c8{
				animation: write 1s forwards 2.7s;
			}
			.c9{
				animation: write 1s forwards 2.8s;
			}
			.c10{
				animation: write 1s forwards 2.9s;
			}
			.c11{
				animation: write 1s forwards 3s;
			}
			@keyframes in-top{
				0%{
					transform: translateY(9.78945px);
				}
				100%{
					transform: translateY(-1.36955px);
				}
			}
			@keyframes in-bottom{
				0%{
					transform: translateY(9.78945px);
				}
				100%{
					transform: translateY(20.94745px);
				}
			}
			@keyframes three{
				100%{
					fill: rgba(0,0,0,0);
				}
			}
			@keyframes write{
				50%{
					fill: rgba(0,0,0,0);
					stroke-dashoffset: 0;
				}
				100%{
					fill: black;
				}
			}
		</style>
	</defs>
	<g transform="translate(5.057375e-5,9.7894636)">
		<path d="m 2.25,-5.609375 c 0,-1.09375 0.125,-1.359375 0.9375,-1.359375 v -0.328125 h -2.875 v 0.328125 c 0.796875,0 0.9375,0.265625 0.9375,1.359375 V -1.6875 c 0,1.09375 -0.140625,1.359375 -0.9375,1.359375 V 0 h 2.875 V -0.328125 C 2.375,-0.328125 2.25,-0.59375 2.25,-1.6875 Z m 0,0" transform="translate(-0.3125,9.00951)"/>
		<path d="m 1.78125,-3.796875 c 0.296875,-0.296875 0.703125,-0.65625 1.140625,-0.65625 0.78125,0 0.828125,0.75 0.828125,1.34375 v 1.75 c 0,0.9375 0,0.984375 -0.6875,1.0625 V 0 H 5.296875 V -0.296875 C 4.625,-0.375 4.625,-0.421875 4.625,-1.359375 v -1.9375 c 0,-0.46875 -0.015625,-0.9375 -0.34375,-1.296875 -0.25,-0.25 -0.59375,-0.390625 -0.9375,-0.390625 -0.5625,0 -1.1875,0.375 -1.5625,0.78125 v -0.84375 L 0.25,-4.46875 v 0.234375 c 0.609375,0 0.625,0.203125 0.640625,0.71875 v 2.15625 c 0,0.9375 0,0.984375 -0.671875,1.0625 V 0 H 2.4375 V -0.296875 C 1.78125,-0.375 1.78125,-0.421875 1.78125,-1.359375 Z m 0,0" transform="translate(3.09472,9.00951)"/>
	</g>
	<path style="animation:three 1s forwards 1s" d="m 10.681676,12.414464 c 0.59375,-0.15625 1.25,-0.65625 1.25,-1.3125 0,-0.828125 -0.765625,-1.3125004 -1.546875,-1.3125004 -0.6093754,0 -1.4843754,0.3437504 -1.4843754,1.0937504 0,0.234375 0.171875,0.453125 0.421875,0.453125 0.234375,0 0.390625,-0.203125 0.390625,-0.421875 0,-0.125 -0.03125,-0.25 -0.03125,-0.359375 0,-0.328125 0.3593754,-0.515625 0.6562504,-0.515625 0.59375,0 0.828125,0.640625 0.828125,1.140625 0,0.375 -0.234375,1.09375 -0.703125,1.09375 -0.140625,0 -0.296875,-0.0625 -0.4687504,-0.0625 -0.140625,0 -0.28125,0.0625 -0.28125,0.21875 0,0.15625 0.125,0.21875 0.265625,0.21875 0.1718754,0 0.3437504,-0.07813 0.5312504,-0.07813 0.625,0 0.828125,0.703125 0.828125,1.21875 0,0.640625 -0.25,1.390625 -1.015625,1.390625 -0.28125,0 -0.7031254,-0.140625 -0.7031254,-0.5 0,-0.09375 0.046875,-0.203125 0.046875,-0.3125 0,-0.25 -0.15625,-0.453125 -0.421875,-0.453125 -0.28125,0 -0.40625,0.25 -0.40625,0.515625 0,0.75 0.890625,1 1.4843754,1 0.890625,0 1.828125,-0.578125 1.828125,-1.546875 0,-0.828125 -0.71875,-1.359375 -1.46875,-1.46875 z m 0,0"/>
	<g transform="translate(5.057375e-5,9.7894636)" style="animation:in-top 1s forwards 1s">
		<path d="m 2.25,-5.609375 c 0,-1.09375 0.125,-1.359375 0.9375,-1.359375 v -0.328125 h -2.875 v 0.328125 c 0.796875,0 0.9375,0.265625 0.9375,1.359375 V -1.6875 c 0,1.09375 -0.140625,1.359375 -0.9375,1.359375 V 0 h 2.875 V -0.328125 C 2.375,-0.328125 2.25,-0.59375 2.25,-1.6875 Z m 0,0" transform="translate(-0.3125,9.00951)"/>
		<path d="m 1.78125,-3.796875 c 0.296875,-0.296875 0.703125,-0.65625 1.140625,-0.65625 0.78125,0 0.828125,0.75 0.828125,1.34375 v 1.75 c 0,0.9375 0,0.984375 -0.6875,1.0625 V 0 H 5.296875 V -0.296875 C 4.625,-0.375 4.625,-0.421875 4.625,-1.359375 v -1.9375 c 0,-0.46875 -0.015625,-0.9375 -0.34375,-1.296875 -0.25,-0.25 -0.59375,-0.390625 -0.9375,-0.390625 -0.5625,0 -1.1875,0.375 -1.5625,0.78125 v -0.84375 L 0.25,-4.46875 v 0.234375 c 0.609375,0 0.625,0.203125 0.640625,0.71875 v 2.15625 c 0,0.9375 0,0.984375 -0.671875,1.0625 V 0 H 2.4375 V -0.296875 C 1.78125,-0.375 1.78125,-0.421875 1.78125,-1.359375 Z m 0,0" transform="translate(3.09472,9.00951)"/>
	</g>
	<g transform="matrix(1.0000261,0,0,1.0000261,8.6042874,7.6408244)">
		<path class="write c1" d="m 3.4375,0.203125 c 0.28125,0.09375 0.734375,0.21875 0.734375,0.59375 0,0.5625 -1.0625,0.625 -1.515625,0.625 -0.5,0 -1.703125,-0.046875 -1.703125,-0.703125 0,-0.546875 0.734375,-0.765625 1.140625,-0.890625 z M 2.265625,-0.890625 C 2.09375,-0.953125 1.4375,-1.0625 1.4375,-1.328125 c 0,-0.15625 0.171875,-0.21875 0.28125,-0.25 0.234375,0.09375 0.578125,0.140625 0.828125,0.140625 0.96875,0 1.953125,-0.6875 1.953125,-1.75 0,-0.375 -0.109375,-0.875 -0.390625,-1.140625 0.0625,-0.046875 0.125,-0.09375 0.1875,-0.09375 0.34375,0 0.390625,0.40625 0.75,0.40625 0.25,0 0.421875,-0.234375 0.421875,-0.484375 0,-0.296875 -0.21875,-0.53125 -0.515625,-0.53125 C 4.5625,-5.03125 4.1875,-4.765625 3.921875,-4.5 3.5625,-4.84375 3.0625,-4.984375 2.59375,-4.984375 c -1.015625,0 -2,0.65625 -2,1.75 0,0.625 0.296875,1.203125 0.84375,1.515625 C 1.09375,-1.640625 0.546875,-1.421875 0.546875,-1 c 0,0.4375 0.75,0.59375 1.03125,0.703125 -0.484375,0.171875 -1.5,0.34375 -1.5,1.046875 0,0.921875 1.828125,1 2.46875,1 0.84375,0 2.375,-0.125 2.375,-1.21875 0,-0.90625 -1.1875,-1.0625 -1.859375,-1.234375 z m 1.296875,-2.25 c 0,0.625 -0.21875,1.375 -0.96875,1.375 -0.765625,0 -1.0625,-0.75 -1.0625,-1.40625 0,-0.625 0.28125,-1.484375 1.046875,-1.484375 0.71875,0 0.984375,0.9375 0.984375,1.515625 z m 0,0"/>
	</g>
	<g transform="matrix(1.0000261,0,0,1.0000261,14.113774,7.6408244)">
		<path class="write c2" d="m 1.75,-3.4375 c 0.15625,-0.28125 0.5625,-0.734375 0.90625,-0.734375 0.328125,0 0.453125,0.25 0.796875,0.25 C 3.78125,-3.921875 4,-4.171875 4,-4.46875 4,-4.828125 3.703125,-5.046875 3.375,-5.046875 c -0.65625,0 -1.25,0.703125 -1.625,1.171875 V -5.046875 L 0.21875,-4.46875 v 0.234375 c 0.609375,0 0.625,0.203125 0.65625,0.71875 v 2.15625 c 0,0.9375 0,0.984375 -0.671875,1.0625 V 0 H 2.40625 V -0.296875 C 1.75,-0.375 1.75,-0.421875 1.75,-1.359375 Z m 0,0"/>
	</g>
	<g transform="matrix(1.0000261,0,0,1.0000261,18.168672,7.6408244)">
		<path class="write c3" d="m 4.703125,-2.734375 c 0,-1.1875 -0.859375,-2.25 -2.09375,-2.25 -1.40625,0 -2.296875,1.3125 -2.296875,2.59375 0,1.359375 1.015625,2.5 2.421875,2.5 0.8125,0 1.515625,-0.484375 1.9375,-1.171875 L 4.5,-1.21875 C 4.109375,-0.6875 3.53125,-0.3125 2.859375,-0.3125 c -1.25,0 -1.53125,-1.453125 -1.53125,-2.421875 z M 1.375,-3.125 c 0.015625,-0.671875 0.375,-1.53125 1.21875,-1.53125 0.859375,0 1.171875,0.84375 1.109375,1.53125 z m 0,0"/>
	</g>
	<g transform="matrix(1.0000261,0,0,1.0000261,23.150122,7.6408244)">
		<path class="write c4" d="m 3.703125,-0.9375 c -0.265625,0.296875 -0.6875,0.625 -1.09375,0.625 -1,0 -1.25,-1.34375 -1.25,-2.125 0,-0.75 0.265625,-2.125 1.25,-2.125 0.40625,0 0.828125,0.34375 1.09375,0.640625 z m 0,-3.40625 c -0.40625,-0.34375 -0.859375,-0.640625 -1.4375,-0.640625 -0.703125,0 -1.859375,0.625 -1.859375,2.578125 0,1.140625 0.59375,2.515625 1.9375,2.515625 0.515625,0 1,-0.3125 1.359375,-0.671875 V 0 h 1.5625 v -0.296875 c -0.6875,-0.078125 -0.6875,-0.125 -0.6875,-1.0625 v -6.28125 l -1.71875,0.5625 v 0.296875 c 0.703125,0.046875 0.84375,0 0.84375,0.875 z m 0,0"/>
	</g>
	<g transform="matrix(1.0000261,0,0,1.0000261,28.659608,7.6408244)">
		<path class="write c5" d="M 1.78125,-5.046875 0.25,-4.46875 v 0.234375 c 0.609375,0 0.625,0.203125 0.640625,0.71875 V -1.375 c 0,0.921875 0,1 -0.671875,1.078125 V 0 H 2.453125 V -0.296875 C 1.78125,-0.375 1.78125,-0.421875 1.78125,-1.359375 Z m 0.078125,-1.6875 c 0,-0.375 -0.296875,-0.671875 -0.65625,-0.671875 -0.375,0 -0.671875,0.296875 -0.671875,0.671875 0,0.359375 0.3125,0.65625 0.671875,0.65625 0.359375,0 0.65625,-0.296875 0.65625,-0.65625 z m 0,0"/>
	</g>
	<g transform="matrix(1.0000261,0,0,1.0000261,31.279846,7.6408244)">
		<path class="write c6" d="m 4.703125,-2.734375 c 0,-1.1875 -0.859375,-2.25 -2.09375,-2.25 -1.40625,0 -2.296875,1.3125 -2.296875,2.59375 0,1.359375 1.015625,2.5 2.421875,2.5 0.8125,0 1.515625,-0.484375 1.9375,-1.171875 L 4.5,-1.21875 C 4.109375,-0.6875 3.53125,-0.3125 2.859375,-0.3125 c -1.25,0 -1.53125,-1.453125 -1.53125,-2.421875 z M 1.375,-3.125 c 0.015625,-0.671875 0.375,-1.53125 1.21875,-1.53125 0.859375,0 1.171875,0.84375 1.109375,1.53125 z m 0,0"/>
	</g>
	<g transform="matrix(1.0000261,0,0,1.0000261,36.261296,7.6408244)">
		<path class="write c7" d="m 1.78125,-3.796875 c 0.296875,-0.296875 0.703125,-0.65625 1.140625,-0.65625 0.78125,0 0.828125,0.75 0.828125,1.34375 v 1.75 c 0,0.9375 0,0.984375 -0.6875,1.0625 V 0 H 5.296875 V -0.296875 C 4.625,-0.375 4.625,-0.421875 4.625,-1.359375 v -1.9375 c 0,-0.46875 -0.015625,-0.9375 -0.34375,-1.296875 -0.25,-0.25 -0.59375,-0.390625 -0.9375,-0.390625 -0.5625,0 -1.1875,0.375 -1.5625,0.78125 v -0.84375 L 0.25,-4.46875 v 0.234375 c 0.609375,0 0.625,0.203125 0.640625,0.71875 v 2.15625 c 0,0.9375 0,0.984375 -0.671875,1.0625 V 0 H 2.4375 V -0.296875 C 1.78125,-0.375 1.78125,-0.421875 1.78125,-1.359375 Z m 0,0"/>
	</g>
	<g transform="matrix(1.0000261,0,0,1.0000261,41.770782,7.6408244)">
		<path class="write c8" d="M 0.8125,-4.546875 V -1.3125 c 0,0.703125 0.140625,1.421875 1.015625,1.421875 0.609375,0 1.109375,-0.40625 1.484375,-0.828125 L 3.140625,-0.921875 c -0.25,0.25 -0.484375,0.5 -0.875,0.5 -0.625,0 -0.578125,-0.65625 -0.578125,-1.109375 V -4.546875 H 3.09375 V -4.875 H 1.6875 v -1.75 H 1.359375 C 1.28125,-5.859375 0.828125,-5.09375 0.09375,-4.78125 v 0.234375 z m 0,0"/>
	</g>
	<g transform="matrix(1.0000261,0,0,1.0000261,8.6042874,18.79912)">
		<path class="write c1" d="m 4.46875,-1.328125 c -0.4375,0.46875 -0.875,0.90625 -1.546875,0.90625 -1.109375,0 -1.640625,-1.15625 -1.640625,-2.109375 0,-0.765625 0.203125,-2.125 1.234375,-2.125 0.953125,0 0.671875,1.21875 1.40625,1.21875 0.28125,0 0.53125,-0.21875 0.53125,-0.5 0,-0.703125 -1.0625,-1.046875 -1.625,-1.046875 -1.546875,0 -2.546875,1.203125 -2.546875,2.671875 0,1.234375 0.921875,2.421875 2.234375,2.421875 0.90625,0 1.625,-0.5625 2.09375,-1.296875 z m 0,0"/>
	</g>
	<g transform="matrix(1.0000261,0,0,1.0000261,13.326703,18.79912)">
		<path class="write c2" d="M 1.78125,-5.046875 0.25,-4.46875 v 0.234375 c 0.609375,0 0.625,0.203125 0.640625,0.71875 V -1.375 c 0,0.921875 0,1 -0.671875,1.078125 V 0 H 2.453125 V -0.296875 C 1.78125,-0.375 1.78125,-0.421875 1.78125,-1.359375 Z m 0.078125,-1.6875 c 0,-0.375 -0.296875,-0.671875 -0.65625,-0.671875 -0.375,0 -0.671875,0.296875 -0.671875,0.671875 0,0.359375 0.3125,0.65625 0.671875,0.65625 0.359375,0 0.65625,-0.296875 0.65625,-0.65625 z m 0,0"/>
	</g>
	<g transform="matrix(1.0000261,0,0,1.0000261,15.946942,18.79912)">
		<path class="write c3" d="m 3.703125,-0.9375 c -0.265625,0.296875 -0.6875,0.625 -1.09375,0.625 -1,0 -1.25,-1.34375 -1.25,-2.125 0,-0.75 0.265625,-2.125 1.25,-2.125 0.40625,0 0.828125,0.34375 1.09375,0.640625 z m 0,-3.40625 c -0.40625,-0.34375 -0.859375,-0.640625 -1.4375,-0.640625 -0.703125,0 -1.859375,0.625 -1.859375,2.578125 0,1.140625 0.59375,2.515625 1.9375,2.515625 0.515625,0 1,-0.3125 1.359375,-0.671875 V 0 h 1.5625 v -0.296875 c -0.6875,-0.078125 -0.6875,-0.125 -0.6875,-1.0625 v -6.28125 l -1.71875,0.5625 v 0.296875 c 0.703125,0.046875 0.84375,0 0.84375,0.875 z m 0,0"/>
	</g>
	<g transform="matrix(1.0000261,0,0,1.0000261,21.456428,18.79912)">
		<path class="write c4" d="m 4.703125,-2.734375 c 0,-1.1875 -0.859375,-2.25 -2.09375,-2.25 -1.40625,0 -2.296875,1.3125 -2.296875,2.59375 0,1.359375 1.015625,2.5 2.421875,2.5 0.8125,0 1.515625,-0.484375 1.9375,-1.171875 L 4.5,-1.21875 C 4.109375,-0.6875 3.53125,-0.3125 2.859375,-0.3125 c -1.25,0 -1.53125,-1.453125 -1.53125,-2.421875 z M 1.375,-3.125 c 0.015625,-0.671875 0.375,-1.53125 1.21875,-1.53125 0.859375,0 1.171875,0.84375 1.109375,1.53125 z m 0,0"/>
	</g>
	<g transform="matrix(1.0000261,0,0,1.0000261,26.437877,18.79912)">
		<path class="write c5" d="m 1.78125,-3.796875 c 0.296875,-0.296875 0.703125,-0.65625 1.140625,-0.65625 0.78125,0 0.828125,0.75 0.828125,1.34375 v 1.75 c 0,0.9375 0,0.984375 -0.6875,1.0625 V 0 H 5.296875 V -0.296875 C 4.625,-0.375 4.625,-0.421875 4.625,-1.359375 v -1.9375 c 0,-0.46875 -0.015625,-0.9375 -0.34375,-1.296875 -0.25,-0.25 -0.59375,-0.390625 -0.9375,-0.390625 -0.5625,0 -1.1875,0.375 -1.5625,0.78125 v -0.84375 L 0.25,-4.46875 v 0.234375 c 0.609375,0 0.625,0.203125 0.640625,0.71875 v 2.15625 c 0,0.9375 0,0.984375 -0.671875,1.0625 V 0 H 2.4375 V -0.296875 C 1.78125,-0.375 1.78125,-0.421875 1.78125,-1.359375 Z m 0,0"/>
	</g>
	<g transform="matrix(1.0000261,0,0,1.0000261,31.947363,18.79912)">
		<path class="write c6" d="M 0.8125,-4.546875 V -1.3125 c 0,0.703125 0.140625,1.421875 1.015625,1.421875 0.609375,0 1.109375,-0.40625 1.484375,-0.828125 L 3.140625,-0.921875 c -0.25,0.25 -0.484375,0.5 -0.875,0.5 -0.625,0 -0.578125,-0.65625 -0.578125,-1.109375 V -4.546875 H 3.09375 V -4.875 H 1.6875 v -1.75 H 1.359375 C 1.28125,-5.859375 0.828125,-5.09375 0.09375,-4.78125 v 0.234375 z m 0,0"/>
	</g>
	<g transform="translate(5.057375e-5,9.7894636)" style="animation:in-bottom 1s forwards 1s">
		<path d="m 2.25,-5.609375 c 0,-1.09375 0.125,-1.359375 0.9375,-1.359375 v -0.328125 h -2.875 v 0.328125 c 0.796875,0 0.9375,0.265625 0.9375,1.359375 V -1.6875 c 0,1.09375 -0.140625,1.359375 -0.9375,1.359375 V 0 h 2.875 V -0.328125 C 2.375,-0.328125 2.25,-0.59375 2.25,-1.6875 Z m 0,0" transform="translate(-0.3125,9.00951)"/>
		<path d="m 1.78125,-3.796875 c 0.296875,-0.296875 0.703125,-0.65625 1.140625,-0.65625 0.78125,0 0.828125,0.75 0.828125,1.34375 v 1.75 c 0,0.9375 0,0.984375 -0.6875,1.0625 V 0 H 5.296875 V -0.296875 C 4.625,-0.375 4.625,-0.421875 4.625,-1.359375 v -1.9375 c 0,-0.46875 -0.015625,-0.9375 -0.34375,-1.296875 -0.25,-0.25 -0.59375,-0.390625 -0.9375,-0.390625 -0.5625,0 -1.1875,0.375 -1.5625,0.78125 v -0.84375 L 0.25,-4.46875 v 0.234375 c 0.609375,0 0.625,0.203125 0.640625,0.71875 v 2.15625 c 0,0.9375 0,0.984375 -0.671875,1.0625 V 0 H 2.4375 V -0.296875 C 1.78125,-0.375 1.78125,-0.421875 1.78125,-1.359375 Z m 0,0" transform="translate(3.09472,9.00951)"/>
	</g>
	<g transform="matrix(1.0000261,0,0,1.0000261,-72.243386,-158.45651)">
		<g transform="translate(83.33622,188.409)">
			<path class="write c1" d="m 3.09375,-0.984375 c -0.25,0.28125 -0.71875,0.5625 -1.078125,0.5625 -0.40625,0 -0.734375,-0.296875 -0.734375,-0.765625 0,-0.828125 1.09375,-1.3125 1.8125,-1.421875 z m 0,-1.953125 c -1.015625,0.203125 -2.75,0.53125 -2.75,1.859375 0,0.703125 0.46875,1.1875 1.171875,1.1875 0.59375,0 1.140625,-0.328125 1.59375,-0.703125 C 3.15625,-0.203125 3.375,0.109375 3.78125,0.109375 4.25,0.109375 4.5625,-0.21875 4.8125,-0.59375 L 4.671875,-0.796875 c -0.109375,0.125 -0.234375,0.25 -0.40625,0.25 -0.296875,0 -0.296875,-0.4375 -0.296875,-0.671875 V -3.5 c 0,-0.421875 0,-0.84375 -0.359375,-1.140625 -0.34375,-0.28125 -0.84375,-0.34375 -1.265625,-0.34375 -0.65625,0 -1.8125,0.3125 -1.8125,1.140625 0,0.28125 0.1875,0.4375 0.46875,0.4375 0.359375,0 0.484375,-0.1875 0.578125,-0.484375 0.109375,-0.4375 0.3125,-0.765625 0.8125,-0.765625 0.59375,0 0.703125,0.5625 0.703125,1.0625 z m 0,0"/>
		</g>
	</g>
	<g transform="matrix(1.0000261,0,0,1.0000261,18.308146,29.957401)">
		<path class="write c2" d="m 1.828125,-3.78125 c 0.359375,-0.328125 0.828125,-0.671875 1.34375,-0.671875 0.671875,0 0.8125,0.5625 0.8125,1.265625 v 1.828125 c 0,0.9375 0,0.984375 -0.671875,1.0625 V 0 h 2.203125 v -0.296875 c -0.65625,-0.078125 -0.65625,-0.125 -0.65625,-1.0625 V -3.1875 c 0,-1.046875 -0.21875,-1.796875 -1.265625,-1.796875 -0.609375,0 -1.3125,0.375 -1.765625,0.78125 v -3.4375 l -1.71875,0.5625 v 0.296875 c 0.703125,0.046875 0.84375,0 0.84375,0.875 v 4.546875 c 0,0.9375 0,0.984375 -0.65625,1.0625 V 0 h 2.21875 v -0.296875 c -0.6875,-0.078125 -0.6875,-0.125 -0.6875,-1.0625 z m 0,0"/>
	</g>
	<g transform="matrix(1.0000261,0,0,1.0000261,24.076673,29.957401)">
		<path class="write c3" d="M 1.78125,-5.046875 0.25,-4.46875 v 0.234375 c 0.609375,0 0.625,0.203125 0.640625,0.71875 V -1.375 c 0,0.921875 0,1 -0.671875,1.078125 V 0 H 2.453125 V -0.296875 C 1.78125,-0.375 1.78125,-0.421875 1.78125,-1.359375 Z m 0.078125,-1.6875 c 0,-0.375 -0.296875,-0.671875 -0.65625,-0.671875 -0.375,0 -0.671875,0.296875 -0.671875,0.671875 0,0.359375 0.3125,0.65625 0.671875,0.65625 0.359375,0 0.65625,-0.296875 0.65625,-0.65625 z m 0,0"/>
	</g>
	<g transform="matrix(1.0000261,0,0,1.0000261,26.696912,29.957401)">
		<path class="write c4" d="m 3.4375,0.203125 c 0.28125,0.09375 0.734375,0.21875 0.734375,0.59375 0,0.5625 -1.0625,0.625 -1.515625,0.625 -0.5,0 -1.703125,-0.046875 -1.703125,-0.703125 0,-0.546875 0.734375,-0.765625 1.140625,-0.890625 z M 2.265625,-0.890625 C 2.09375,-0.953125 1.4375,-1.0625 1.4375,-1.328125 c 0,-0.15625 0.171875,-0.21875 0.28125,-0.25 0.234375,0.09375 0.578125,0.140625 0.828125,0.140625 0.96875,0 1.953125,-0.6875 1.953125,-1.75 0,-0.375 -0.109375,-0.875 -0.390625,-1.140625 0.0625,-0.046875 0.125,-0.09375 0.1875,-0.09375 0.34375,0 0.390625,0.40625 0.75,0.40625 0.25,0 0.421875,-0.234375 0.421875,-0.484375 0,-0.296875 -0.21875,-0.53125 -0.515625,-0.53125 C 4.5625,-5.03125 4.1875,-4.765625 3.921875,-4.5 3.5625,-4.84375 3.0625,-4.984375 2.59375,-4.984375 c -1.015625,0 -2,0.65625 -2,1.75 0,0.625 0.296875,1.203125 0.84375,1.515625 C 1.09375,-1.640625 0.546875,-1.421875 0.546875,-1 c 0,0.4375 0.75,0.59375 1.03125,0.703125 -0.484375,0.171875 -1.5,0.34375 -1.5,1.046875 0,0.921875 1.828125,1 2.46875,1 0.84375,0 2.375,-0.125 2.375,-1.21875 0,-0.90625 -1.1875,-1.0625 -1.859375,-1.234375 z m 1.296875,-2.25 c 0,0.625 -0.21875,1.375 -0.96875,1.375 -0.765625,0 -1.0625,-0.75 -1.0625,-1.40625 0,-0.625 0.28125,-1.484375 1.046875,-1.484375 0.71875,0 0.984375,0.9375 0.984375,1.515625 z m 0,0"/>
	</g>
	<g transform="matrix(1.0000261,0,0,1.0000261,32.206398,29.957401)">
		<path class="write c5" d="m 1.828125,-3.78125 c 0.359375,-0.328125 0.828125,-0.671875 1.34375,-0.671875 0.671875,0 0.8125,0.5625 0.8125,1.265625 v 1.828125 c 0,0.9375 0,0.984375 -0.671875,1.0625 V 0 h 2.203125 v -0.296875 c -0.65625,-0.078125 -0.65625,-0.125 -0.65625,-1.0625 V -3.1875 c 0,-1.046875 -0.21875,-1.796875 -1.265625,-1.796875 -0.609375,0 -1.3125,0.375 -1.765625,0.78125 v -3.4375 l -1.71875,0.5625 v 0.296875 c 0.703125,0.046875 0.84375,0 0.84375,0.875 v 4.546875 c 0,0.9375 0,0.984375 -0.65625,1.0625 V 0 h 2.21875 v -0.296875 c -0.6875,-0.078125 -0.6875,-0.125 -0.6875,-1.0625 z m 0,0"/>
	</g>
	<g transform="matrix(1.0000261,0,0,1.0000261,40.46565,29.957401)">
		<path class="write c6" d="m 3.46875,-5.046875 c -0.125,0.125 -0.265625,0.21875 -0.453125,0.21875 -0.28125,0 -0.625,-0.15625 -0.984375,-0.15625 -0.78125,0 -1.5625,0.5625 -1.5625,1.421875 0,1.796875 3.09375,1.234375 3.09375,2.53125 0,0.46875 -0.40625,0.8125 -0.875,0.8125 -0.75,0 -1.6875,-0.84375 -2.0625,-1.46875 l -0.21875,0.109375 0.625,1.6875 C 1.203125,-0.03125 1.390625,-0.125 1.609375,-0.125 c 0.125,0 0.25,0.0625 0.359375,0.09375 0.234375,0.078125 0.40625,0.140625 0.65625,0.140625 0.796875,0 1.625,-0.640625 1.625,-1.5 0,-1.828125 -3.125,-1.375 -3.125,-2.59375 0,-0.40625 0.40625,-0.671875 0.78125,-0.671875 0.8125,0 1.40625,0.734375 1.90625,1.359375 l 0.234375,-0.125 z m 0,0"/>
	</g>
	<g transform="matrix(1.0000261,0,0,1.0000261,44.929024,29.957401)">
		<path class="write c7" d="m 4.46875,-1.328125 c -0.4375,0.46875 -0.875,0.90625 -1.546875,0.90625 -1.109375,0 -1.640625,-1.15625 -1.640625,-2.109375 0,-0.765625 0.203125,-2.125 1.234375,-2.125 0.953125,0 0.671875,1.21875 1.40625,1.21875 0.28125,0 0.53125,-0.21875 0.53125,-0.5 0,-0.703125 -1.0625,-1.046875 -1.625,-1.046875 -1.546875,0 -2.546875,1.203125 -2.546875,2.671875 0,1.234375 0.921875,2.421875 2.234375,2.421875 0.90625,0 1.625,-0.5625 2.09375,-1.296875 z m 0,0"/>
	</g>
	<g transform="matrix(1.0000261,0,0,1.0000261,49.651432,29.957401)">
		<path class="write c8" d="m 1.828125,-3.78125 c 0.359375,-0.328125 0.828125,-0.671875 1.34375,-0.671875 0.671875,0 0.8125,0.5625 0.8125,1.265625 v 1.828125 c 0,0.9375 0,0.984375 -0.671875,1.0625 V 0 h 2.203125 v -0.296875 c -0.65625,-0.078125 -0.65625,-0.125 -0.65625,-1.0625 V -3.1875 c 0,-1.046875 -0.21875,-1.796875 -1.265625,-1.796875 -0.609375,0 -1.3125,0.375 -1.765625,0.78125 v -3.4375 l -1.71875,0.5625 v 0.296875 c 0.703125,0.046875 0.84375,0 0.84375,0.875 v 4.546875 c 0,0.9375 0,0.984375 -0.65625,1.0625 V 0 h 2.21875 v -0.296875 c -0.6875,-0.078125 -0.6875,-0.125 -0.6875,-1.0625 z m 0,0"/>
	</g>
	<g transform="matrix(1.0000261,0,0,1.0000261,55.41996,29.957401)">
		<path class="write c9" d="m 2.578125,0.109375 c 1.3125,0 2.265625,-1.203125 2.265625,-2.46875 0,-1.265625 -0.828125,-2.625 -2.21875,-2.625 -1.40625,0 -2.25,1.328125 -2.25,2.625 0,1.234375 0.921875,2.46875 2.203125,2.46875 z m 0,-0.328125 c -0.96875,0 -1.203125,-1.640625 -1.203125,-2.359375 0,-0.765625 0.25,-2.078125 1.25,-2.078125 0.984375,0 1.21875,1.375 1.21875,2.109375 0,0.765625 -0.234375,2.328125 -1.265625,2.328125 z m 0,0"/>
	</g>
	<g transform="matrix(1.0000261,0,0,1.0000261,60.670404,29.957401)">
		<path class="write c10" d="m 2.578125,0.109375 c 1.3125,0 2.265625,-1.203125 2.265625,-2.46875 0,-1.265625 -0.828125,-2.625 -2.21875,-2.625 -1.40625,0 -2.25,1.328125 -2.25,2.625 0,1.234375 0.921875,2.46875 2.203125,2.46875 z m 0,-0.328125 c -0.96875,0 -1.203125,-1.640625 -1.203125,-2.359375 0,-0.765625 0.25,-2.078125 1.25,-2.078125 0.984375,0 1.21875,1.375 1.21875,2.109375 0,0.765625 -0.234375,2.328125 -1.265625,2.328125 z m 0,0"/>
	</g>
	<g transform="matrix(1.0000261,0,0,1.0000261,65.920848,29.957401)">
		<path class="write c11" d="m 0.953125,-1.359375 c 0,0.9375 0,0.984375 -0.65625,1.0625 V 0 h 2.21875 v -0.296875 c -0.6875,-0.078125 -0.6875,-0.125 -0.6875,-1.0625 v -6.28125 l -1.71875,0.5625 v 0.296875 c 0.703125,0.046875 0.84375,0 0.84375,0.875 z m 0,0"/>
	</g>
</svg>