<?xml version="1.0"?><svg viewBox="0 0 12.15037 12.150369" xmlns="http://www.w3.org/2000/svg"><path d="m 1.9375,4.9705684 c 0,-1.09375 0.125,-1.359375 0.9375,-1.359375 V 3.2830684 H 0 v 0.328125 c 0.796875,0 0.9375,0.265625 0.9375,1.359375 v 3.921875 c 0,1.09375 -0.140625,1.3593746 -0.9375,1.3593746 v 0.328125 h 2.875 v -0.328125 c -0.8125,0 -0.9375,-0.2656246 -0.9375,-1.3593746 z m 0,0"/><path d="m 4.87597,6.7830684 c 0.296875,-0.296875 0.703125,-0.65625 1.140625,-0.65625 0.78125,0 0.828125,0.75 0.828125,1.34375 v 1.75 c 0,0.9374996 0,0.9843746 -0.6875,1.0624996 v 0.296875 H 8.391595 V 10.283068 C 7.71972,10.204943 7.71972,10.158068 7.71972,9.2205684 v -1.9375 c 0,-0.46875 -0.015625,-0.9375 -0.34375,-1.296875 -0.25,-0.25 -0.59375,-0.390625 -0.9375,-0.390625 -0.5625,0 -1.1875,0.375 -1.5625,0.78125 v -0.84375 l -1.53125,0.578125 v 0.234375 c 0.609375,0 0.625,0.203125 0.640625,0.71875 v 2.15625 c 0,0.9374996 0,0.9843746 -0.671875,1.0624996 v 0.296875 h 2.21875 v -0.296875 c -0.65625,-0.07813 -0.65625,-0.125 -0.65625,-1.0624996 z m 0,0"/><path d="m 10.681625,4.1954334 c 0.59375,-0.15625 1.25,-0.65625 1.25,-1.3125 0,-0.8281251 -0.765625,-1.3125001 -1.546875,-1.3125001 -0.609375,0 -1.484375,0.34375 -1.484375,1.0937501 0,0.234375 0.171875,0.453125 0.421875,0.453125 0.234375,0 0.390625,-0.203125 0.390625,-0.421875 0,-0.125 -0.03125,-0.2500001 -0.03125,-0.3593751 0,-0.328125 0.359375,-0.515625 0.65625,-0.515625 0.59375,0 0.828125,0.640625 0.828125,1.1406251 0,0.375 -0.234375,1.09375 -0.703125,1.09375 -0.140625,0 -0.296875,-0.0625 -0.46875,-0.0625 -0.140625,0 -0.28125,0.0625 -0.28125,0.21875 0,0.15625 0.125,0.21875 0.265625,0.21875 0.171875,0 0.34375,-0.078125 0.53125,-0.078125 0.625,0 0.828125,0.703125 0.828125,1.21875 0,0.640625 -0.25,1.390625 -1.015625,1.390625 -0.28125,0 -0.703125,-0.140625 -0.703125,-0.5 0,-0.09375 0.046875,-0.203125 0.046875,-0.3125 0,-0.25 -0.15625,-0.453125 -0.421875,-0.453125 -0.28125,0 -0.40625,0.25 -0.40625,0.515625 0,0.75 0.890625,1 1.484375,1 0.890625,0 1.828125,-0.578125 1.828125,-1.546875 0,-0.828125 -0.71875,-1.359375 -1.46875,-1.46875 z m 0,0"/></svg>